<?xml version="1.0" encoding="UTF-8" standalone="no"?>
<!DOCTYPE svg PUBLIC "-//W3C//DTD SVG 1.1//EN" "http://www.w3.org/Graphics/SVG/1.1/DTD/svg11.dtd">
<!-- Created with Vectornator (http://vectornator.io/) -->
<svg height="100%" stroke-miterlimit="10" style="fill-rule:nonzero;clip-rule:evenodd;stroke-linecap:round;stroke-linejoin:round;" version="1.1" viewBox="0 0 1024 1024" width="100%" xml:space="preserve" xmlns="http://www.w3.org/2000/svg" xmlns:vectornator="http://vectornator.io" xmlns:xlink="http://www.w3.org/1999/xlink">
<defs>
<clipPath id="TextBounds">
<rect height="292.084" width="550.013" x="209.358" y="363.702"/>
</clipPath>
</defs>
<g id="Layer-1" vectornator:layerName="Layer 1">
<path d="M649.103 296.79" fill="none" opacity="1" stroke="#000000" stroke-linecap="round" stroke-linejoin="round" stroke-width="16.3743"/>
<path d="M643.796 69.685L119.683 394.616L334.684 905.176L921.576 846.724L643.796 69.685Z" fill="none" opacity="1" stroke="#000000" stroke-linecap="round" stroke-linejoin="round" stroke-width="16.3743"/>
</g>
<g id="Layer-1-copy" vectornator:layerName="Layer 1 copy">
<path d="M540.908 59.487L106.553 497.22L434.212 943.914L991.499 750.804L540.908 59.487Z" fill="none" opacity="1" stroke="#000000" stroke-linecap="round" stroke-linejoin="round" stroke-width="16.3743"/>
</g>
<g id="Layer-2" vectornator:layerName="Layer 2">
<g fill="#000000" opacity="1" stroke="none">
<path clip-path="url(#TextBounds)" d="M368.353 484.073C368.54 483.51 368.681 482.901 368.775 482.245C368.868 481.588 368.915 480.792 368.915 479.854C368.915 478.354 367.65 476.854 365.119 475.354C362.587 473.854 359.212 472.495 354.994 471.276C350.775 470.058 345.947 469.026 340.51 468.183C335.073 467.339 329.354 466.917 323.354 466.917C317.729 466.917 311.823 467.573 305.636 468.886C299.449 470.198 293.777 472.354 288.621 475.354C283.465 478.354 279.246 482.338 275.965 487.307C272.684 492.276 271.044 498.322 271.044 505.447C271.044 512.572 272.684 518.618 275.965 523.587C279.246 528.556 283.465 532.54 288.621 535.54C293.777 538.54 299.449 540.696 305.636 542.008C311.823 543.321 317.729 543.977 323.354 543.977C325.792 543.977 329.635 543.555 334.885 542.711C340.135 541.868 345.385 540.696 350.635 539.196C355.884 537.696 360.525 536.009 364.556 534.134C368.587 532.259 370.603 530.29 370.603 528.228C370.603 527.29 370.415 526.54 370.04 525.978C369.665 525.415 369.29 524.759 368.915 524.009L372.009 522.04L400.977 566.195L397.602 568.164C397.227 567.226 396.711 566.617 396.055 566.336C395.399 566.054 394.602 565.914 393.664 565.914C392.352 565.914 389.727 566.711 385.79 568.304C381.852 569.898 376.743 571.585 370.462 573.367C364.181 575.148 356.822 576.742 348.385 578.148C339.947 579.554 330.479 580.257 319.979 580.257C308.73 580.257 297.574 578.804 286.512 575.898C275.45 572.992 265.512 568.398 256.7 562.117C247.888 555.836 240.763 547.961 235.326 538.493C229.889 529.024 227.17 518.009 227.17 505.447C227.17 492.885 229.889 481.87 235.326 472.401C240.763 462.933 247.888 455.058 256.7 448.777C265.512 442.496 275.45 437.762 286.512 434.574C297.574 431.387 308.73 429.793 319.979 429.793C331.229 429.793 340.932 430.403 349.088 431.621C357.244 432.84 364.134 434.199 369.759 435.699C375.196 437.199 379.415 438.465 382.415 439.496C385.415 440.527 387.665 441.043 389.165 441.043C390.852 441.043 392.258 440.293 393.383 438.793L396.477 439.637L371.165 486.041L368.353 484.073Z"/>
<path clip-path="url(#TextBounds)" d="M576.752 570.976C576.752 573.039 577.502 574.351 579.002 574.913C580.502 575.476 582.377 575.851 584.627 576.038L584.627 579.413L532.597 579.413L532.597 576.038C534.097 576.038 535.832 575.851 537.8 575.476C539.769 575.101 540.753 574.07 540.753 572.382C540.753 570.695 538.691 567.554 534.566 562.961C530.441 558.367 525.144 552.695 518.676 545.946C512.207 539.196 504.942 531.649 496.88 523.306C488.817 514.962 480.849 506.103 472.974 496.729L472.412 497.291L472.412 570.976C472.412 573.039 473.115 574.351 474.521 574.913C475.927 575.476 477.662 575.851 479.724 576.038L479.724 579.413L431.632 579.413L431.632 576.038C433.507 575.851 435.147 575.476 436.554 574.913C437.96 574.351 438.663 573.039 438.663 570.976L438.663 464.105C438.663 462.042 437.913 460.73 436.413 460.167C434.913 459.605 433.132 459.23 431.069 459.042L431.069 455.667L498.005 455.667L498.005 459.042C496.692 459.23 495.38 459.605 494.067 460.167C492.755 460.73 492.099 462.042 492.099 464.105C492.099 464.48 493.645 466.401 496.739 469.87C499.833 473.339 503.817 477.698 508.692 482.948C513.567 488.198 519.004 494.01 525.004 500.385C531.004 506.76 537.003 513.134 543.003 519.509L543.003 464.105C543.003 462.042 542.253 460.73 540.753 460.167C539.253 459.605 537.378 459.23 535.128 459.042L535.128 455.667L584.627 455.667L584.627 459.042C582.377 459.23 580.502 459.605 579.002 460.167C577.502 460.73 576.752 462.042 576.752 464.105L576.752 570.976Z"/>
<path clip-path="url(#TextBounds)" d="M661.124 455.667L661.124 459.042C659.999 459.042 658.546 459.136 656.765 459.324C654.984 459.511 654.093 460.355 654.093 461.855C654.093 462.23 654.656 464.105 655.781 467.48C656.906 470.854 658.359 474.979 660.14 479.854C661.921 484.729 663.843 490.026 665.905 495.744C667.968 501.463 669.936 506.9 671.811 512.056C673.686 517.212 675.327 521.759 676.733 525.696C678.139 529.634 679.03 532.259 679.405 533.571L679.967 533.571C682.405 527.571 685.311 520.587 688.686 512.619C692.061 504.65 695.248 497.01 698.248 489.698C701.248 482.385 703.826 476.057 705.982 470.714C708.138 465.37 709.216 462.417 709.216 461.855C709.216 460.355 708.373 459.511 706.685 459.324C704.998 459.136 703.685 459.042 702.748 459.042L702.748 455.667L749.715 455.667L749.715 459.042C748.215 459.23 746.949 459.558 745.918 460.027C744.887 460.495 744.184 461.48 743.809 462.98C743.246 465.042 741.793 469.073 739.45 475.073C737.106 481.073 734.294 488.01 731.013 495.885C727.731 503.76 724.31 512.056 720.747 520.775C717.185 529.493 713.857 537.555 710.763 544.961C707.67 552.367 705.138 558.555 703.17 563.523C701.201 568.492 700.217 571.164 700.217 571.539C700.217 573.039 700.873 574.21 702.185 575.054C703.498 575.898 704.81 576.226 706.123 576.038L706.123 579.413L646.781 579.413L646.781 576.038C648.093 576.226 649.406 575.898 650.718 575.054C652.031 574.21 652.687 573.039 652.687 571.539C652.687 571.351 651.796 568.539 650.015 563.101C648.234 557.664 645.984 550.914 643.265 542.852C640.547 534.79 637.547 526.024 634.266 516.556C630.985 507.088 627.844 498.275 624.844 490.119C621.844 481.963 619.266 475.073 617.11 469.448C614.954 463.823 613.501 460.824 612.751 460.449C611.626 459.699 610.735 459.277 610.079 459.183C609.423 459.089 608.72 459.042 607.97 459.042L607.97 455.667L661.124 455.667Z"/>
</g>
</g>
</svg>
